<svg width="129" height="84" viewBox="0 0 129 84" fill="none" xmlns="http://www.w3.org/2000/svg">
<path d="M105.18 41.978C104.995 38.2503 104.068 34.3991 101.988 31.2481C98.899 26.6348 93.1325 22.8042 88.6222 19.715C83.5147 16.2138 77.8305 13.4541 71.7344 12.1978C59.604 9.72646 45.5789 11.9713 35.2403 18.9324C29.5149 22.7836 26.0756 28.4266 22.801 34.3373C19.7942 39.7538 17.3228 45.7057 13.8628 50.8544C11.7828 53.923 8.96125 56.3532 6.32511 58.9276C4.38919 60.8017 -0.12108 64.6118 0.00248874 67.6186C0.0848682 69.6163 5.52191 69.5957 6.86058 69.6781C10.0734 69.8635 13.3686 69.534 16.4578 68.5866C18.2289 68.0511 24.2632 64.8589 25.6431 67.3303C25.9314 67.8452 25.9108 68.6072 25.9314 69.1838C25.9726 70.8932 25.8696 72.6232 26.055 74.3325C26.2198 76.1037 27.0024 77.7513 28.3822 78.884C29.2884 79.6254 30.4005 80.0373 31.5538 80.1609C33.3044 80.717 35.6934 80.7582 37.3616 79.955C39.627 78.8634 39.9153 76.2891 40.2037 74.0442C40.4096 72.479 40.2654 70.8932 40.5126 69.328C40.595 68.8543 40.595 67.5569 41.2952 67.5569C42.881 67.5569 42.3455 71.3257 42.3455 72.1495C42.3661 74.6827 42.5721 77.6277 44.6522 79.3783C45.8673 80.408 47.4325 80.7787 48.9771 80.9847C51.016 81.2318 53.0755 80.8405 54.6407 79.4401C56.0617 78.1632 56.0205 76.0831 56.1441 74.3325C56.2059 73.3852 56.2471 72.4584 56.2471 71.5111C56.2471 70.9138 56.0617 69.8841 56.453 69.3486C57.0503 68.5248 58.5949 69.0397 59.4187 69.1221C60.6544 69.2456 61.8695 69.3898 63.1052 69.3692C63.7848 69.3692 64.588 69.2662 65.1852 69.6369C66.009 70.1312 65.5765 71.0786 65.5559 71.9024C65.5353 72.8497 65.5147 73.7971 65.5147 74.7444C65.5147 76.7627 65.6177 79.0488 66.9976 80.6552C68.604 82.5293 72.1669 82.4675 74.3705 82.2616C76.6978 82.0556 79.2103 81.6849 80.2195 79.2959C81.0227 77.4012 80.8167 75.2593 80.7344 73.2616C80.6932 72.1701 80.5902 70.8314 81.7847 70.3783C83.9472 69.5134 83.4323 72.2319 83.3499 73.4264C83.2263 75.3417 83.2675 77.3806 83.9472 79.193C85.0593 82.0556 88.8693 82.2616 91.4643 81.8909C94.8418 81.3966 96.6336 78.8222 97.1073 75.63C97.3544 73.9618 97.3544 72.2113 97.4368 70.5225C97.478 69.6987 97.4986 68.8543 97.5192 68.0305C97.5604 67.3509 97.6221 66.6713 97.6633 65.9916C97.8487 63.6438 97.9105 61.5432 99.0638 59.4425C99.8464 58.0214 100.67 56.7446 101.556 55.4059C104.13 51.3899 105.428 46.7354 105.18 41.978Z" fill="#009267"/>
<path d="M47.1853 43.6256C46.9588 42.0604 46.9588 40.4952 47.1029 38.9094C47.4119 35.3464 47.4942 31.7629 48.0915 28.2206C48.8329 23.8751 50.1098 19.6326 52.0457 15.6577C53.0343 13.6395 54.1258 11.6624 55.1761 9.70584C55.4645 9.17037 55.7734 8.67609 56.1029 8.18181C55.897 7.99646 55.6704 7.8523 55.3821 7.81111C51.1601 7.00791 47.2265 9.85 44.9199 13.1658C44.7757 13.5571 44.6316 13.969 44.4874 14.3603C43.849 16.2756 43.2929 18.2321 42.881 20.2092C42.0778 24.0811 41.7483 28.2 42.222 32.1336C42.6956 36.0879 43.7872 40.0833 45.6407 43.6256C46.1762 44.6347 46.7734 45.5821 47.4119 46.4883C47.6178 46.3441 47.8032 46.1587 47.9473 45.9734C47.5148 45.3349 47.3089 44.4494 47.1853 43.6256Z" fill="#78D9AE"/>
<path d="M34.4577 29.1886C34.2723 25.4609 34.3135 21.445 35.2815 17.8409C35.6728 16.3374 36.27 14.8958 36.9703 13.4953C36.1259 13.6807 35.2815 14.072 34.8284 14.2985C33.984 14.7516 33.1808 15.2871 32.4394 15.8843C32.0275 16.6875 31.6568 17.4907 31.3479 18.3351C30.3799 20.9713 29.8238 23.731 29.8856 26.5525C29.9474 29.271 30.3593 32.319 31.6568 34.7492C32.3364 36.0261 33.1396 37.1794 34.1076 38.2298C34.6636 38.8476 35.3021 39.3625 35.8993 39.9391C36.2082 39.8362 36.4142 39.6508 36.5378 39.4037C34.9726 36.3144 34.6224 32.6074 34.4577 29.1886Z" fill="#78D9AE"/>
<path d="M75.6886 0.891222C72.3316 -1.00351 67.8008 0.355758 65.1028 2.78595C63.9495 3.8157 63.0022 5.05139 62.199 6.36946C62.096 6.6372 61.993 6.90492 61.89 7.17266C60.8603 9.97356 60.0983 12.8774 59.5216 15.8019C58.7596 19.7767 58.4713 24.0604 59.5216 28.0147C60.0365 29.93 60.7985 31.7423 62.0136 33.3281C62.096 33.4517 62.199 33.5547 62.2813 33.6782C62.3431 33.6371 62.4049 33.5753 62.4461 33.5135C62.4049 33.2046 62.3637 32.9162 62.3225 32.6279C62.096 30.9597 62.0136 29.2709 62.2608 27.6028C62.7344 24.1634 63.8877 20.7447 65.2264 17.5319C66.5239 14.3809 68.3156 11.58 70.4987 8.96441C71.6108 7.62575 72.8053 6.30767 74.041 5.05139C74.8236 4.24819 75.6062 3.40381 76.5124 2.70358C76.6772 2.02395 76.327 1.24133 75.6886 0.891222Z" fill="#78D9AE"/>
<path d="M38.9474 77.2364C38.3501 76.8451 37.5469 76.8863 36.9085 77.0922C36.27 77.2982 35.6934 77.6071 35.1579 78.019C35.0138 78.0396 34.8902 78.1014 34.7666 78.2044C34.2312 77.2776 33.222 76.6186 32.0893 76.8863C31.4714 77.0304 30.936 77.4012 30.4829 77.8543C30.3799 77.5659 30.2358 77.2776 30.0504 77.0098C29.8445 76.7009 29.3708 76.5156 29.0413 76.3714C28.7117 76.2067 28.2381 76.1861 27.8879 76.2684C27.7644 76.289 27.6408 76.3508 27.5172 76.4126C27.1465 76.495 26.7758 76.6803 26.4875 76.9481C25.8285 77.5247 25.5607 78.4721 25.7461 79.3165C26.0756 80.7787 27.785 81.6437 29.103 80.9229C29.5355 81.6025 30.3387 82.0762 31.3067 82.241C32.3982 82.4263 33.7575 82.0144 34.5195 81.1494C34.9932 81.7467 35.6934 82.035 36.4554 82.138C38.1236 82.3439 39.7094 80.9023 39.9153 79.3165C40.0389 78.4309 39.6476 77.6689 38.9474 77.2364Z" fill="#78D9AE"/>
<path d="M55.5056 77.3394C54.9084 76.9481 54.1052 76.9893 53.4668 77.1952C52.8283 77.4012 52.2517 77.7101 51.7162 78.122C51.572 78.1426 51.4485 78.2044 51.3249 78.3074C50.7894 77.3806 49.7803 76.7215 48.6476 76.9893C48.0297 77.1334 47.4942 77.5042 47.0412 77.9573C46.9382 77.6689 46.794 77.3806 46.6087 77.1128C46.4027 76.8039 45.929 76.6186 45.5995 76.4744C45.27 76.3097 44.7963 76.2891 44.4462 76.3714C44.3226 76.392 44.1991 76.4538 44.0755 76.5156C43.7048 76.598 43.3341 76.7833 43.0457 77.0511C42.3867 77.6277 42.119 78.5751 42.3043 79.4195C42.6339 80.8817 44.3432 81.7467 45.6613 81.0259C46.0938 81.7055 46.897 82.1792 47.865 82.3439C48.9565 82.5293 50.3157 82.1174 51.0777 81.2524C51.5514 81.8497 52.2517 82.138 53.0137 82.241C54.6819 82.4469 56.2677 81.0053 56.4736 79.4195C56.5972 78.5545 56.1853 77.7719 55.5056 77.3394Z" fill="#78D9AE"/>
<path d="M79.7046 78.5957C79.1074 78.2044 78.3042 78.2455 77.6657 78.4515C77.0273 78.6574 76.4506 78.9664 75.9152 79.3783C75.771 79.3989 75.6474 79.4606 75.5239 79.5636C74.9884 78.6368 73.9792 77.9778 72.8465 78.2455C72.2287 78.3897 71.6932 78.7604 71.2401 79.2135C71.1371 78.9252 70.993 78.6369 70.8076 78.3691C70.6017 78.0602 70.128 77.8748 69.7985 77.7307C69.469 77.5659 68.9953 77.5453 68.6452 77.6277C68.5216 77.6483 68.398 77.7101 68.2745 77.7719C67.9037 77.8543 67.533 78.0396 67.2447 78.3073C66.5857 78.884 66.3179 79.8314 66.5033 80.6757C66.8328 82.138 68.5422 83.003 69.8603 82.2822C70.2928 82.9618 71.096 83.4354 72.0639 83.6002C73.1554 83.7856 74.5147 83.3737 75.2767 82.5087C75.7504 83.1059 76.4506 83.3943 77.2126 83.4972C78.8808 83.7032 80.4666 82.2615 80.6726 80.6757C80.7961 79.7902 80.3842 79.0282 79.7046 78.5957Z" fill="#78D9AE"/>
<path d="M95.851 77.7924C95.2126 77.4835 94.43 77.5865 93.7915 77.8748C93.1737 78.1426 92.6382 78.5132 92.1439 78.9663C92.0204 79.0075 91.8762 79.0899 91.7732 79.1929C91.1554 78.3279 90.0639 77.7719 88.9723 78.1632C88.3751 78.3691 87.8808 78.8016 87.4895 79.2959C87.3659 79.0075 87.2012 78.7398 86.9746 78.4927C86.7275 78.2043 86.2538 78.0808 85.9037 77.9572C85.5536 77.8336 85.0799 77.8542 84.7504 77.9778C84.6268 78.019 84.5238 78.0808 84.4003 78.1425C84.0296 78.2661 83.7 78.4927 83.4323 78.781C82.8351 79.4194 82.6703 80.3874 82.938 81.2112C83.4323 82.6322 85.2241 83.3119 86.4598 82.4469C86.954 83.0647 87.819 83.456 88.787 83.5178C89.8991 83.5796 91.1966 83.0235 91.8762 82.0968C92.4117 82.6528 93.1325 82.8588 93.9151 82.8794C95.6039 82.9205 97.0249 81.3142 97.0455 79.7078C97.0661 78.884 96.5718 78.1631 95.851 77.7924Z" fill="#78D9AE"/>
<path d="M93.8327 67.7216C93.4826 67.5568 93.1325 67.3921 92.7823 67.2479C91.1142 66.2388 89.343 65.4561 87.5101 64.7971C84.9563 63.8909 82.3407 63.2113 79.7046 62.5317C75.7092 61.4813 71.5079 60.1221 71.9403 55.0763C72.1051 53.0374 73.9175 51.5752 74.1234 49.5363C74.1852 48.9185 74.0822 48.3418 73.8763 47.7651C73.4026 46.4471 72.3934 45.2526 71.8168 44.0581C70.8488 42.1016 70.4987 40.0627 71.4461 38.0032C71.5284 37.8384 71.6108 37.6737 71.7138 37.5089C72.62 35.9231 74.3911 35.1199 75.2973 33.5341C76.1005 32.113 75.3179 30.5478 75.2973 29.065C75.2767 27.541 75.8328 26.0788 76.6772 24.8225C77.6039 23.4632 79.1279 22.5364 80.7343 22.1657C82.2378 21.8156 83.7824 22.2275 84.9563 20.9918C87.2423 18.6028 89.2606 16.1108 92.9471 16.6669C95.7068 17.0788 97.3132 20.5387 100.155 20.5181C103.121 20.4976 104.645 17.0582 107.302 16.1932C110.412 15.1841 114.16 16.3168 115.478 19.4678C116.178 21.0948 115.684 23.7103 117.27 24.8431C118.835 25.9552 121.059 25.255 122.83 25.5433C127.011 26.2229 129.75 30.7744 127.958 34.6462C127.238 36.1908 125.899 37.4471 125.384 39.0947C124.725 41.1954 125.714 42.1221 127.114 43.5432C128.597 45.0466 129.524 47.3945 128.679 49.4333C128.041 50.978 126.599 51.7605 125.734 53.1198C124.828 54.5203 125.528 56.312 125.466 57.8566C125.322 61.3372 121.945 62.4287 119.082 63.026C115.601 63.7674 112.718 64.1793 110 66.6301C106.972 69.3692 103.78 71.4287 99.5169 70.5637C97.4162 70.1312 95.7274 68.6277 93.8327 67.7216Z" fill="#78D9AE"/>
<path d="M109.526 49.7423C110.144 49.7423 110.72 49.9071 111.194 50.319C111.668 50.7308 111.956 51.3281 111.977 51.946C112.039 53.1816 111.029 54.3967 109.753 54.3967C109.135 54.3967 108.558 54.232 108.084 53.8201C107.611 53.4082 107.322 52.8109 107.302 52.1931C107.261 50.9574 108.27 49.7423 109.526 49.7423Z" fill="black"/>
<path d="M93.1943 49.7423C93.8121 49.7423 94.3888 49.9071 94.8625 50.319C95.3361 50.7308 95.6245 51.3281 95.6451 51.946C95.7068 53.1816 94.6977 54.3967 93.4208 54.3967C92.803 54.3967 92.2263 54.232 91.7526 53.8201C91.2789 53.4082 90.9906 52.8109 90.97 52.1931C90.9082 50.9574 91.9174 49.7423 93.1943 49.7423Z" fill="black"/>
<path d="M108.393 50.7514C108.579 50.6278 108.908 50.566 109.114 50.7102C109.114 50.7102 109.135 50.7102 109.135 50.7308C109.299 50.8544 109.444 50.9573 109.505 51.1633C109.567 51.328 109.547 51.5546 109.464 51.7194C109.423 51.7811 109.382 51.8429 109.341 51.9047C109.073 52.193 108.682 52.193 108.373 51.9665C108.414 51.9871 108.455 52.0283 108.496 52.0489C108.249 51.9459 108.105 51.6782 108.084 51.431V51.4104C108.043 51.1427 108.187 50.8955 108.393 50.7514Z" fill="white"/>
<path d="M92.6794 50.6278C93.0707 50.6278 93.4208 50.9162 93.4414 51.3075C93.462 51.6782 93.1531 52.0695 92.7618 52.0695C92.3705 52.0695 92.0204 51.7812 91.9998 51.3899C91.9792 50.9986 92.2881 50.6278 92.6794 50.6278Z" fill="white"/>
<path d="M103.553 58.5775C103.306 58.3303 103.059 58.145 102.812 58.0008C101.329 57.1564 100.217 59.5042 99.7846 60.5958C99.5375 61.2342 98.7755 62.5111 99.0432 63.2319C99.3933 64.2205 101.206 63.9939 101.988 63.9527C102.338 63.9322 105.366 63.8498 105.489 63.3967C105.922 61.9962 104.789 59.7514 103.553 58.5775Z" fill="white"/>
<path d="M104.727 43.6874C105.036 43.4608 104.933 43.5638 104.727 43.6874V43.6874Z" fill="white"/>
<path d="M104.666 43.7286L104.686 43.708C104.707 43.708 104.707 43.6874 104.727 43.6874C104.707 43.6874 104.707 43.708 104.666 43.7286Z" fill="white"/>
<path d="M104.254 42.3281C103.924 41.1542 103.533 40.0421 103.059 38.9093C102.585 37.756 102.091 36.6233 101.535 35.4906C101.288 34.9963 101.103 34.1725 100.485 34.4197C99.6404 34.7698 99.1873 36.7057 98.9402 37.4677C98.5489 38.6828 98.1576 39.8979 97.9105 41.1542C97.8075 41.7102 97.7457 42.2045 97.6015 42.6782C97.5809 43.1725 97.5809 43.6873 97.4574 44.161C97.478 44.1816 97.4986 44.2228 97.5191 44.2434C98.5283 45.3967 100.444 45.8086 101.906 45.6027C103.368 45.3967 104.254 44.2022 104.398 42.8636C104.377 42.6988 104.315 42.5135 104.254 42.3281Z" fill="white"/>
<path d="M88.8075 36.8704C88.7663 36.8293 88.7252 36.7881 88.6634 36.7675C88.3133 36.1496 87.7984 35.573 87.4689 35.1199C86.7892 34.1931 86.1096 33.1016 85.2446 32.3396C83.597 30.9185 83.3705 36.1702 83.4117 36.7881C83.4941 38.2915 84.0501 39.6302 84.6062 40.9688C86.7686 41.0924 90.4757 38.2091 88.8075 36.8704Z" fill="white"/>
<path d="M119.164 40.9482C119.844 40.8453 119.947 36.232 119.947 35.7172C119.968 34.9963 119.947 30.8979 118.299 32.3396C117.414 33.1016 116.755 34.1931 116.075 35.1199C115.746 35.5524 115.231 36.1496 114.881 36.7675C114.839 36.8087 114.798 36.8499 114.736 36.8705C113.006 38.2503 117.043 41.2984 119.164 40.9482Z" fill="white"/>
<path d="M63.929 45.9734C63.929 45.9734 63.8672 45.891 63.7436 45.7675C63.62 45.6439 63.4553 45.4585 63.2905 45.2526C63.2081 45.1496 63.1258 45.026 63.0228 44.9025C62.9404 44.7789 62.858 44.6347 62.7756 44.5112C62.7345 44.4494 62.6933 44.3876 62.6521 44.3052C62.6109 44.2434 62.5903 44.1611 62.5491 44.0993C62.4873 43.9551 62.4255 43.8315 62.3637 43.708C62.199 43.1931 62.0342 42.4929 62.0754 41.9368C62.0548 41.6485 62.096 41.4219 62.1166 41.2572C62.1372 41.0924 62.1578 40.9895 62.1578 40.9895C62.1578 40.9277 62.4049 40.9483 62.4255 41.01C62.4255 41.01 62.4255 41.113 62.4255 41.2778C62.4255 41.4425 62.4255 41.6897 62.4667 41.9368C62.4873 42.0604 62.4873 42.2046 62.5079 42.3281C62.5285 42.4723 62.5697 42.6165 62.6109 42.74C62.6315 42.8018 62.6315 42.8842 62.6521 42.946C62.6727 43.0078 62.6933 43.0901 62.7139 43.1519C62.755 43.2755 62.7962 43.4196 62.8374 43.5226C62.8786 43.6462 62.9404 43.7698 62.9816 43.8933C63.0022 43.9551 63.0434 44.0169 63.064 44.0993C63.1052 44.1611 63.1258 44.2228 63.1669 44.2846C63.2287 44.4082 63.2905 44.5523 63.3729 44.6759C63.4553 44.7995 63.5171 44.9231 63.5788 45.026C63.7024 45.2526 63.8466 45.4379 63.9495 45.5821C64.0525 45.7263 64.0937 45.8086 64.0937 45.8086C64.1349 45.8498 63.9701 45.994 63.929 45.9734Z" fill="#78D9AE"/>
<path d="M56.3501 58.145C56.3501 58.145 56.0205 57.9596 55.6086 57.6507C55.1967 57.3418 54.7025 56.9093 54.3935 56.4974C54.2494 56.2915 54.0846 56.0237 53.9816 55.7354C53.8581 55.4471 53.8169 55.1381 53.7963 54.8704C53.7963 54.7262 53.7963 54.6027 53.8169 54.4997C53.8375 54.3761 53.8375 54.2732 53.8581 54.1908C53.8993 54.0466 53.9199 53.9436 53.9199 53.9436C53.9405 53.9024 54.167 53.9436 54.167 53.9848C54.167 53.9848 54.1464 54.0878 54.1464 54.232C54.1464 54.3761 54.1464 54.5821 54.167 54.8086C54.2288 55.2823 54.4965 55.7972 54.7848 56.1679C55.0526 56.5386 55.4645 56.9917 55.8352 57.3212C56.2059 57.6507 56.4942 57.8979 56.4942 57.8979C56.5354 57.9802 56.3912 58.1656 56.3501 58.145Z" fill="#78D9AE"/>
<path d="M38.3295 52.0695C38.3295 52.0695 38.2678 52.0283 38.1442 51.9253C38.0412 51.8429 37.8765 51.6988 37.7323 51.534C37.4234 51.2045 37.1144 50.7102 36.9703 50.2983C36.8055 49.8864 36.7025 49.3304 36.7025 48.8773C36.7025 48.7537 36.7026 48.6507 36.7231 48.5684C36.7437 48.4654 36.7437 48.383 36.7437 48.3212C36.7643 48.1977 36.7849 48.1153 36.7849 48.1153C36.8055 48.0741 37.0321 48.0947 37.0527 48.1565C37.0527 48.1565 37.0527 48.2388 37.0527 48.383C37.0527 48.4448 37.0527 48.5272 37.0527 48.6096C37.0527 48.6919 37.0733 48.7949 37.0939 48.8979C37.1556 49.3098 37.2998 49.8041 37.444 50.1748C37.5881 50.5455 37.8147 51.0191 38.0412 51.3487C38.1648 51.5134 38.2678 51.6576 38.3501 51.7606C38.4325 51.8635 38.4943 51.9047 38.4943 51.9047C38.5149 51.9253 38.3707 52.0901 38.3295 52.0695Z" fill="#78D9AE"/>
<path d="M24.8605 47.415C24.8605 47.415 24.8399 47.3327 24.8193 47.1885C24.7987 47.1267 24.7987 47.0443 24.7781 46.9413C24.7575 46.859 24.7575 46.756 24.7369 46.6324C24.6751 46.1999 24.7163 45.6439 24.7781 45.2114C24.8811 44.7789 25.0459 44.264 25.293 43.8727C25.3548 43.7698 25.396 43.6668 25.4577 43.605C25.5195 43.5432 25.5607 43.4814 25.6019 43.4196C25.6843 43.3167 25.7461 43.2549 25.7461 43.2549C25.7667 43.2137 25.9726 43.3578 25.952 43.399C25.952 43.399 25.9108 43.4608 25.8491 43.5844C25.8079 43.6462 25.7667 43.708 25.7255 43.7903C25.6843 43.8727 25.6637 43.9551 25.6225 44.0581C25.4577 44.4082 25.3548 44.9231 25.2724 45.3144C25.2106 45.7057 25.1282 46.2205 25.1076 46.6324C25.1076 46.7354 25.087 46.8384 25.087 46.9208C25.087 47.0031 25.087 47.0855 25.087 47.1473C25.087 47.2709 25.087 47.3532 25.087 47.3532C25.087 47.4356 24.8811 47.4562 24.8605 47.415Z" fill="#78D9AE"/>
<path d="M23.769 57.8979C23.769 57.8979 23.7278 57.8361 23.6248 57.7537C23.5424 57.6507 23.4189 57.5272 23.3159 57.3624C23.0688 57.0329 22.8422 56.5798 22.7186 56.1885C22.6157 55.7972 22.5333 55.2823 22.5745 54.8704C22.5745 54.7674 22.5745 54.6645 22.5951 54.5821C22.6157 54.4997 22.6157 54.4173 22.6363 54.3761C22.6569 54.2526 22.6775 54.1908 22.6775 54.1908C22.6775 54.1496 22.9246 54.1702 22.9452 54.2114C22.9452 54.2114 22.9452 54.2938 22.9452 54.4173C22.9452 54.4791 22.9452 54.5615 22.9452 54.6439C22.9452 54.7262 22.9658 54.8086 22.9658 54.9116C22.9864 55.2823 23.1099 55.7354 23.2129 56.0649C23.2335 56.1473 23.2747 56.2503 23.2953 56.3327C23.3159 56.3738 23.3159 56.4356 23.3365 56.4768L23.3983 56.621C23.4395 56.7239 23.4807 56.8063 23.5218 56.9093C23.563 56.9917 23.6042 57.0947 23.666 57.177C23.7484 57.3418 23.8308 57.486 23.8926 57.5889C23.9543 57.6919 23.9955 57.7537 23.9955 57.7537C23.9955 57.7949 23.8102 57.9391 23.769 57.8979Z" fill="#78D9AE"/>
<path d="M34.3959 63.5202C34.3959 63.5202 34.3547 63.4585 34.2929 63.3349C34.2311 63.2319 34.1282 63.0672 34.0458 62.8818C33.8398 62.5111 33.6545 62.0374 33.5309 61.6667C33.4279 61.2754 33.325 60.7605 33.325 60.3486C33.325 60.2457 33.3044 60.1427 33.325 60.0603C33.325 59.9779 33.325 59.8956 33.325 59.8338C33.325 59.7102 33.3456 59.6278 33.3456 59.6278C33.3456 59.5866 33.5927 59.5866 33.6133 59.6072C33.6133 59.6072 33.6133 59.6896 33.6339 59.8132C33.6339 59.8749 33.6545 59.9573 33.6545 60.0397C33.6751 60.1221 33.6957 60.2045 33.7163 60.3074C33.778 60.6987 33.9222 61.1518 34.0458 61.5225C34.1488 61.8932 34.2929 62.3669 34.4371 62.7376C34.4989 62.923 34.5606 63.0877 34.6018 63.2113C34.643 63.3349 34.6636 63.3967 34.6636 63.3967C34.6224 63.4585 34.4371 63.5614 34.3959 63.5202Z" fill="#78D9AE"/>
<path d="M15.3457 63.8086C15.3457 63.8086 15.2427 63.7674 15.0779 63.7056C14.9132 63.6232 14.6866 63.5202 14.4395 63.3555C14.1924 63.1907 13.9452 62.9848 13.6981 62.7582C13.5951 62.6347 13.4715 62.5111 13.3892 62.3669C13.348 62.3051 13.2862 62.2433 13.245 62.161C13.2038 62.0992 13.1626 62.0168 13.142 61.955C12.8537 61.4401 12.7507 60.637 12.9155 60.0603C12.9979 59.772 13.1008 59.5248 13.2038 59.3601C13.3068 59.2159 13.348 59.1129 13.348 59.1129C13.3892 59.0718 13.5951 59.1747 13.5745 59.2365C13.5745 59.2365 13.5333 59.3395 13.4509 59.4836C13.3892 59.6484 13.3274 59.8543 13.2862 60.1221C13.2038 60.6369 13.348 61.2754 13.5951 61.7285C13.6157 61.7903 13.6569 61.8521 13.6775 61.8933C13.7187 61.955 13.7599 62.0168 13.7805 62.058C13.8422 62.1816 13.9452 62.2846 14.0276 62.4081C14.213 62.6347 14.4189 62.8406 14.6454 63.0054C14.8514 63.1701 15.0573 63.3143 15.2015 63.3967C15.3457 63.479 15.4486 63.5408 15.4486 63.5408C15.4898 63.6232 15.4075 63.8292 15.3457 63.8086Z" fill="#78D9AE"/>
<path d="M72.62 18.7058C72.62 18.7058 72.7847 18.1909 72.9495 17.9026C73.1143 17.6142 73.485 17.2229 73.485 17.2229C73.5056 17.2024 73.7115 17.3259 73.7115 17.3465C73.7115 17.3465 73.5467 17.8614 73.382 18.1497C73.2172 18.438 72.8465 18.8293 72.8465 18.8293C72.8259 18.8293 72.62 18.7264 72.62 18.7058Z" fill="#78D9AE"/>
<path d="M68.4804 34.1725C68.4804 34.1725 68.3568 33.3899 68.3568 32.8957C68.3568 32.4014 68.4804 31.6188 68.4804 31.6188C68.4804 31.5982 68.7275 31.5982 68.7481 31.6188C68.7481 31.6188 68.8717 32.4014 68.8717 32.8957C68.8717 33.3899 68.7481 34.1725 68.7481 34.1725C68.7069 34.1931 68.501 34.1931 68.4804 34.1725Z" fill="#78D9AE"/>
<path d="M69.1188 61.1312C69.1188 61.1312 69.0571 61.0488 68.9747 60.9047C68.8923 60.7605 68.7687 60.5752 68.604 60.3486C68.3156 59.9161 67.9037 59.4013 67.6154 58.9688C67.3271 58.5363 66.9564 57.9802 66.7092 57.4859C66.6475 57.3624 66.5857 57.2594 66.5445 57.1564C66.5033 57.0535 66.4621 56.9505 66.4415 56.8887C66.3797 56.7239 66.3385 56.6416 66.3385 56.6416C66.3179 56.5798 66.5445 56.4768 66.5651 56.5386C66.5651 56.5386 66.6063 56.621 66.6886 56.7651C66.7298 56.8475 66.771 56.9299 66.8328 57.0328C66.8946 57.1152 66.9564 57.2182 67.0388 57.3418C67.3271 57.7743 67.7184 58.2891 68.0273 58.7216C68.3156 59.1541 68.6863 59.7102 68.9335 60.1839C69.0776 60.4104 69.16 60.637 69.2424 60.7811C69.3042 60.9253 69.3454 61.0282 69.3454 61.0282C69.366 61.0694 69.16 61.1724 69.1188 61.1312Z" fill="#78D9AE"/>
<path d="M64.4026 64.4676C64.4026 64.4676 64.2997 64.447 64.1555 64.4058C64.0731 64.3852 63.9907 64.344 63.8878 64.3028C63.7848 64.2616 63.6818 64.2205 63.5582 64.1587C63.1052 63.9321 62.5903 63.5202 62.2814 63.1083C61.9724 62.717 61.6841 62.0992 61.6017 61.6049C61.5605 61.3578 61.5399 61.1106 61.5399 60.9665C61.5399 60.8017 61.5399 60.7193 61.5399 60.7193C61.5399 60.6575 61.7871 60.6575 61.8077 60.6987C61.8077 60.6987 61.8283 60.8017 61.8283 60.9459C61.8489 61.09 61.8901 61.296 61.9724 61.5019C62.1166 61.955 62.4049 62.4493 62.6933 62.7994C62.961 63.1701 63.3729 63.5614 63.7642 63.8291C63.8672 63.8909 63.9495 63.9527 64.0525 63.9939C64.1349 64.0351 64.2173 64.0763 64.2791 64.1175C64.4232 64.1792 64.5056 64.2204 64.5056 64.2204C64.5262 64.2616 64.4644 64.4676 64.4026 64.4676Z" fill="#78D9AE"/>
<path d="M56.1029 38.0856C56.1029 38.0856 56.0205 37.756 55.9176 37.303C55.8146 36.8499 55.691 36.2938 55.6498 35.8201C55.6086 35.367 55.6498 34.7698 55.794 34.2961C55.8558 34.0696 55.9382 33.8636 55.9999 33.7194C56.0617 33.5959 56.1029 33.5135 56.1029 33.5135C56.1235 33.4723 56.35 33.5547 56.35 33.6165C56.35 33.6165 56.3295 33.6988 56.2883 33.843C56.2471 33.9872 56.2059 34.1519 56.1853 34.3785C56.1235 34.811 56.1441 35.367 56.1647 35.7995C56.1853 36.232 56.2471 36.7881 56.2883 37.2412C56.3295 37.6943 56.35 38.0444 56.35 38.0444C56.35 38.1062 56.1235 38.1268 56.1029 38.0856Z" fill="#78D9AE"/>
<path d="M38.9474 26.1406C38.9474 26.1406 38.8238 25.7081 38.6796 25.1314C38.5355 24.5547 38.3913 23.8339 38.3295 23.2573C38.2883 22.6806 38.2883 21.9186 38.4325 21.3214C38.4737 21.1772 38.4737 21.033 38.5355 20.9095C38.5766 20.7859 38.6178 20.6829 38.6384 20.6005C38.7002 20.4152 38.7414 20.3122 38.7414 20.3122C38.762 20.2504 39.0091 20.3122 38.9885 20.374C38.9885 20.374 38.9679 20.477 38.9268 20.6623C38.9062 20.7447 38.8856 20.8683 38.865 20.9918C38.8444 21.1154 38.8444 21.239 38.8238 21.3831C38.7414 21.9392 38.8032 22.66 38.8444 23.2161C38.9062 23.7721 38.9885 24.493 39.0709 25.0696C39.1533 25.6463 39.2151 26.0994 39.2151 26.0994C39.1945 26.1612 38.9885 26.2023 38.9474 26.1406Z" fill="#78D9AE"/>
<path d="M50.2951 71.6346C50.2951 71.6346 49.945 71.511 49.4713 71.3463C48.9977 71.1815 48.4416 70.9344 48.0091 70.6872C47.5766 70.4401 47.0823 70.0076 46.794 69.5957C46.7322 69.4927 46.6499 69.3898 46.6087 69.2868C46.5469 69.1838 46.5057 69.1014 46.4645 69.0191C46.4027 68.8749 46.3821 68.7925 46.3821 68.7925C46.3615 68.7513 46.5881 68.6277 46.6087 68.6689C46.6087 68.6689 46.6499 68.7513 46.7322 68.8749C46.7734 68.9367 46.8352 68.9985 46.8764 69.0808C46.9382 69.1632 47.0206 69.2456 47.0823 69.328C47.3913 69.6575 47.8649 70.0076 48.2768 70.2342C48.6681 70.4813 49.2036 70.7696 49.6361 70.9756C50.0686 71.2021 50.3981 71.3669 50.3981 71.3669C50.4393 71.4287 50.3363 71.6346 50.2951 71.6346Z" fill="#78D9AE"/>
<path d="M34.4577 73.5705C34.4577 73.5705 34.3959 73.5499 34.2723 73.4881C34.1488 73.447 34.0046 73.3852 33.8193 73.3028C33.4486 73.138 33.0161 72.9115 32.7071 72.6849C32.5424 72.5614 32.3776 72.4172 32.2129 72.273C32.0481 72.1083 31.9039 71.9435 31.7804 71.7788C31.7186 71.6964 31.6568 71.614 31.6156 71.5522C31.5744 71.4904 31.5332 71.4081 31.5126 71.3669C31.4508 71.2639 31.4097 71.2021 31.4097 71.2021C31.3891 71.1609 31.595 71.0374 31.6156 71.058C31.6156 71.058 31.6568 71.1197 31.7392 71.2021C31.7804 71.2433 31.8216 71.3051 31.8833 71.3669C31.9451 71.4287 32.0069 71.4904 32.0687 71.5522C32.1923 71.6758 32.357 71.82 32.5218 71.9435C32.6865 72.0671 32.8513 72.1907 32.9955 72.2937C33.2838 72.4996 33.6751 72.7879 34.0046 72.9939C34.3341 73.1998 34.5813 73.3646 34.5813 73.3646C34.5813 73.3852 34.4989 73.5911 34.4577 73.5705Z" fill="#78D9AE"/>
<path d="M71.4049 74.2501C71.4049 74.2501 71.3637 74.2501 71.3019 74.2707C71.2401 74.2707 71.1371 74.2913 71.0342 74.2913C70.8076 74.2913 70.5399 74.2501 70.3339 74.1883C70.128 74.106 69.9014 73.9824 69.7161 73.8382C69.6337 73.7764 69.5513 73.7147 69.5101 73.6735C69.4689 73.6323 69.4278 73.6117 69.4278 73.6117C69.4072 73.5911 69.5513 73.3851 69.5719 73.3851C69.5719 73.3851 69.6131 73.4057 69.6749 73.4263C69.7367 73.4469 69.8191 73.4881 69.922 73.5293C70.1074 73.5911 70.3339 73.6735 70.5193 73.7353C70.7046 73.797 70.9106 73.8794 71.1165 73.9412C71.2195 73.9618 71.3019 73.9824 71.3637 74.003C71.4255 74.0236 71.4666 74.0236 71.4666 74.0236C71.4255 74.0236 71.4255 74.2501 71.4049 74.2501Z" fill="#78D9AE"/>
<path d="M76.8626 68.6071C76.8626 68.6071 76.8008 68.6277 76.6978 68.6483C76.5948 68.6689 76.4507 68.7101 76.2859 68.7101C75.9564 68.7513 75.5239 68.6689 75.1944 68.5659C74.8854 68.4218 74.5353 68.2158 74.2882 67.9275C74.1646 67.8039 74.0822 67.6804 74.0411 67.598C73.9793 67.5156 73.9587 67.4744 73.9587 67.4744C73.9381 67.4538 74.1234 67.289 74.1646 67.3096C74.1646 67.3096 74.2058 67.3508 74.2882 67.4126C74.3706 67.4744 74.453 67.5774 74.5765 67.6598C74.6383 67.701 74.7001 67.7421 74.7619 67.7833C74.8237 67.8245 74.906 67.8657 74.9678 67.9069C75.0296 67.9481 75.112 67.9687 75.1738 68.0099C75.2356 68.0511 75.3179 68.0717 75.3797 68.0923C75.6475 68.1746 75.977 68.2982 76.2859 68.3188C76.4301 68.3394 76.5536 68.3394 76.6566 68.3394C76.7596 68.3394 76.8008 68.3394 76.8008 68.3394C76.842 68.3806 76.8831 68.5865 76.8626 68.6071Z" fill="#78D9AE"/>
<path d="M90.4552 74.2502C90.4552 74.2502 90.1668 74.1884 89.7755 74.106C89.3842 74.0236 88.8899 73.9206 88.5192 73.7971C88.1485 73.6735 87.6749 73.4264 87.3453 73.1174C87.263 73.0557 87.2012 72.9527 87.1394 72.8909C87.0776 72.8085 87.0364 72.7261 86.9952 72.6643C86.954 72.5408 86.9128 72.479 86.9128 72.479C86.8922 72.4378 87.1188 72.3348 87.1394 72.3554C87.1394 72.3554 87.1806 72.4172 87.2424 72.5202C87.2836 72.5614 87.3247 72.6026 87.3659 72.6643C87.4277 72.7055 87.4895 72.7673 87.5513 72.8291C87.8396 73.0351 88.2721 73.1998 88.6428 73.3234C88.9929 73.447 89.4666 73.6117 89.8373 73.7353C90.208 73.8795 90.4963 74.003 90.4963 74.003C90.5787 74.0236 90.4963 74.2296 90.4552 74.2502Z" fill="#78D9AE"/>
<path d="M82.6291 66.6301C82.6291 66.6301 82.4026 66.5683 82.1348 66.4653C81.8465 66.3623 81.4964 66.2593 81.2286 66.1564C80.9609 66.0534 80.6314 65.8886 80.3637 65.7857C80.0753 65.6827 79.8694 65.5797 79.8694 65.5797C79.8488 65.5591 79.9106 65.3326 79.9518 65.3326C79.9518 65.3326 80.1783 65.3738 80.4666 65.415C80.755 65.4767 81.1257 65.5797 81.414 65.6827C81.6817 65.8063 82.0318 65.971 82.279 66.1152C82.5467 66.28 82.7321 66.4035 82.7321 66.4035C82.7733 66.4447 82.6703 66.6301 82.6291 66.6301Z" fill="#78D9AE"/>
<path d="M89.1165 23.2161C89.1165 23.2161 89.446 22.9483 89.8991 22.5776C90.3522 22.2069 90.9288 21.7744 91.4849 21.5273C91.7526 21.4243 92.0821 21.3007 92.4322 21.2595C92.597 21.2184 92.7823 21.2595 92.9471 21.2595C93.0295 21.2801 93.1119 21.3007 93.1942 21.3007C93.2354 21.3007 93.2766 21.3213 93.3178 21.3213C93.359 21.3419 93.4002 21.3419 93.4208 21.3625C93.565 21.4243 93.7091 21.4655 93.8121 21.5479C93.9357 21.6097 94.0386 21.6714 94.1004 21.7332C94.2446 21.8568 94.327 21.9186 94.327 21.9186C94.3682 21.9598 94.224 22.1657 94.1828 22.1245C94.1828 22.1245 94.1004 22.0628 93.9357 21.9598C93.8533 21.898 93.7709 21.8774 93.6679 21.8362C93.565 21.795 93.4414 21.7538 93.3178 21.7332C92.803 21.5891 92.1439 21.7744 91.6702 21.9804C91.1966 22.1863 90.5787 22.557 90.105 22.8659C89.8579 23.0307 89.6519 23.1543 89.5078 23.2573C89.343 23.3602 89.2606 23.422 89.2606 23.422C89.1988 23.4426 89.0753 23.2572 89.1165 23.2161Z" fill="#009267"/>
<path d="M90.867 26.5937C90.867 26.5937 90.8876 26.5319 90.9494 26.4289C90.97 26.3877 91.0112 26.3259 91.0524 26.2641C91.0936 26.2023 91.1554 26.1406 91.1966 26.0788C91.4231 25.811 91.7732 25.5639 92.0821 25.4403C92.3911 25.3168 92.803 25.2344 93.1531 25.255C93.2354 25.255 93.3178 25.2756 93.4002 25.2756C93.4826 25.2962 93.5444 25.3168 93.6062 25.3168C93.7091 25.358 93.7503 25.3785 93.7503 25.3785C93.7709 25.3991 93.7091 25.6257 93.6885 25.6257C93.6885 25.6257 93.6679 25.6257 93.6473 25.6257C93.6268 25.6257 93.5856 25.6051 93.5444 25.6051C93.5032 25.6051 93.462 25.6051 93.4002 25.6051C93.3384 25.6051 93.2766 25.6051 93.1943 25.6257C92.9059 25.6669 92.5558 25.7904 92.3087 25.8934C92.0409 25.9964 91.7114 26.1612 91.4849 26.3465C91.4231 26.3877 91.3819 26.4289 91.3407 26.4701C91.2995 26.5113 91.2583 26.5525 91.2377 26.5937C91.176 26.6554 91.1554 26.7172 91.1554 26.7172C91.0524 26.7172 90.867 26.6348 90.867 26.5937Z" fill="#009267"/>
<path d="M91.8144 30.3419C91.8144 30.3419 91.8968 30.1771 92.0615 29.9918C92.2263 29.8064 92.4528 29.6211 92.6794 29.5181C92.8853 29.4151 93.1943 29.3327 93.4826 29.3533C93.5444 29.3533 93.6061 29.3739 93.6679 29.3945C93.7297 29.4151 93.7915 29.4357 93.8327 29.4563C93.8945 29.4975 93.9357 29.5181 93.9357 29.5181C93.9563 29.5387 93.8327 29.7446 93.8121 29.7446C93.8121 29.7446 93.7709 29.724 93.7091 29.7035C93.6885 29.7035 93.6679 29.7035 93.6268 29.7035C93.5856 29.7035 93.5444 29.7034 93.5032 29.724C93.3178 29.7652 93.0913 29.8682 92.9265 29.9506C92.7412 30.033 92.5146 30.1565 92.3499 30.2595C92.1645 30.3625 92.0615 30.4861 92.0615 30.4861C91.9792 30.4861 91.8144 30.3625 91.8144 30.3419Z" fill="#009267"/>
<path d="M93.2355 34.4197C93.2355 34.4197 93.2355 34.3991 93.2355 34.3579C93.2355 34.3167 93.2561 34.2549 93.2767 34.1932C93.3178 34.0696 93.4002 33.9254 93.5032 33.843C93.6062 33.7607 93.7503 33.6989 93.8945 33.6783C93.9357 33.6783 93.9769 33.6783 93.9975 33.6783C94.0181 33.6783 94.0387 33.6783 94.0593 33.6783C94.1004 33.6783 94.121 33.6989 94.121 33.6989C94.1416 33.6989 94.1622 33.946 94.1416 33.9666C94.1416 33.9666 94.121 33.9666 94.1004 33.9872C94.0799 33.9872 94.0593 34.0078 94.0387 34.0078C94.0181 34.0284 94.0181 34.0284 93.9975 34.049C93.9769 34.0696 93.9357 34.1108 93.9151 34.1314C93.8945 34.1726 93.8533 34.1932 93.8121 34.2343C93.7503 34.2961 93.6474 34.3373 93.5856 34.3991C93.5444 34.4197 93.5238 34.4609 93.5032 34.4815C93.4826 34.5021 93.462 34.5227 93.462 34.5227C93.4414 34.5227 93.2355 34.4403 93.2355 34.4197Z" fill="#009267"/>
<path d="M78.3865 28.509C78.3865 28.509 78.3865 28.4266 78.3865 28.2824C78.3865 28.1383 78.4071 27.9529 78.4483 27.747C78.5307 27.3145 78.7161 26.7996 78.9838 26.4289C79.2309 26.0582 79.6634 25.6875 80.0959 25.5021C80.3019 25.4197 80.5078 25.358 80.6314 25.3374C80.7549 25.3168 80.8373 25.3168 80.8373 25.3168C80.8785 25.3168 80.9403 25.5639 80.8991 25.5639C80.8991 25.5639 80.8167 25.5845 80.6932 25.6257C80.5696 25.6669 80.4254 25.7287 80.2607 25.8316C79.9312 26.0376 79.6016 26.3877 79.3957 26.6966C79.1691 27.0056 78.9426 27.438 78.819 27.8293C78.7572 28.0147 78.7161 28.2 78.6955 28.3236C78.6749 28.4472 78.6543 28.5296 78.6543 28.5296C78.6131 28.5708 78.4071 28.5502 78.3865 28.509Z" fill="#009267"/>
<path d="M80.7138 29.7447C80.7138 29.7447 80.7138 29.7035 80.7344 29.6211C80.7344 29.5387 80.755 29.4151 80.7962 29.2916C80.8579 29.0238 81.0433 28.7355 81.2081 28.5296C81.3934 28.3442 81.6405 28.1383 81.8877 28.0147C82.0113 27.9529 82.0936 27.9117 82.176 27.8705C82.2378 27.8293 82.2996 27.8293 82.2996 27.8293C82.3202 27.8293 82.4643 28.0353 82.4438 28.0559C82.4438 28.0559 82.4026 28.0971 82.3408 28.1383C82.279 28.1795 82.1966 28.2618 82.1142 28.3442C81.9289 28.4884 81.7435 28.7149 81.5994 28.8797C81.4552 29.0444 81.2698 29.2504 81.1669 29.4563C81.1051 29.5593 81.0639 29.6417 81.0433 29.7241C81.0227 29.7858 81.0021 29.827 81.0021 29.827C80.9403 29.8064 80.7138 29.7653 80.7138 29.7447Z" fill="#009267"/>
<path d="M82.3819 32.319C82.3819 32.319 82.3819 32.2366 82.4025 32.1131C82.4231 32.0101 82.4231 31.8659 82.4643 31.7629C82.5261 31.557 82.7321 31.2481 82.7321 31.2481L82.9792 31.3099C82.9792 31.3099 82.9998 31.6806 82.938 31.8865C82.8968 31.9895 82.8144 32.1337 82.7527 32.216C82.6909 32.319 82.6291 32.3808 82.6291 32.3808C82.5879 32.422 82.4025 32.3396 82.3819 32.319Z" fill="#009267"/>
<path d="M75.1943 43.6874C75.1943 43.6874 75.1325 43.5844 75.0502 43.4402C75.009 43.3578 74.9678 43.2549 74.906 43.1519C74.8648 43.0489 74.803 42.9254 74.7618 42.7812C74.5765 42.2457 74.4323 41.5455 74.4323 40.9688C74.4323 40.4128 74.5765 39.6714 74.8854 39.1565C74.9678 39.0329 75.0502 38.93 75.1325 38.827C75.2355 38.7446 75.3179 38.6622 75.3797 38.6004C75.5238 38.4975 75.6062 38.4563 75.6062 38.4563C75.6474 38.4357 75.7916 38.621 75.771 38.6622C75.771 38.6622 75.6886 38.724 75.565 38.8476C75.5238 38.9094 75.4621 38.9711 75.4003 39.0535C75.3385 39.1359 75.2767 39.2389 75.2149 39.3625C74.9884 39.8155 74.906 40.4746 74.9266 40.9895C74.9266 41.5043 74.9884 42.1633 75.1119 42.6782C75.1325 42.8018 75.1737 42.9254 75.2149 43.0489C75.2561 43.1519 75.2767 43.2549 75.2973 43.3372C75.3591 43.502 75.4003 43.5844 75.4003 43.5844C75.4415 43.6256 75.2355 43.7286 75.1943 43.6874Z" fill="#009267"/>
<path d="M77.9541 43.3579C77.9541 43.3579 77.9129 43.2961 77.8511 43.2137C77.7893 43.1107 77.7069 42.9665 77.6451 42.8018C77.501 42.4517 77.398 41.9986 77.4186 41.6279C77.4392 41.2572 77.5834 40.7835 77.8099 40.454C77.8717 40.3716 77.9129 40.3098 77.9747 40.248C78.0365 40.1862 78.0982 40.1245 78.1394 40.1039C78.2218 40.0421 78.2836 40.0009 78.2836 40.0009C78.3248 39.9803 78.4689 40.1657 78.4484 40.1863C78.4484 40.1863 78.4072 40.2274 78.3248 40.3098C78.2836 40.351 78.263 40.3922 78.2218 40.454C78.1806 40.5158 78.16 40.5775 78.1188 40.6393C77.9747 40.9277 77.9129 41.319 77.9129 41.6279C77.8923 41.9368 77.9335 42.3487 77.9953 42.6782C78.0365 42.843 78.0776 42.9872 78.1188 43.0695C78.16 43.1725 78.1806 43.2343 78.1806 43.2343C78.1806 43.2549 77.9953 43.3785 77.9541 43.3579Z" fill="#009267"/>
<path d="M80.858 44.0169C80.858 44.0169 80.8374 43.9757 80.7756 43.9139C80.7344 43.8521 80.652 43.7698 80.5902 43.6668C80.4461 43.4609 80.3431 43.1519 80.3019 42.9254C80.2607 42.6782 80.2813 42.3899 80.3225 42.1428C80.3431 42.0192 80.3637 41.9162 80.3843 41.8544C80.4049 41.7927 80.4049 41.7309 80.4049 41.7309C80.4049 41.7103 80.652 41.7309 80.6726 41.7515C80.6726 41.7515 80.6726 41.7927 80.6932 41.875C80.6932 41.9574 80.7138 42.0604 80.7138 42.1634C80.7344 42.3899 80.7962 42.6577 80.8168 42.8636C80.858 43.0695 80.8785 43.3373 80.9609 43.5432C80.9815 43.6462 81.0227 43.7286 81.0433 43.811C81.0639 43.8727 81.0845 43.9139 81.0845 43.9139C81.0639 43.9139 80.8785 44.0375 80.858 44.0169Z" fill="#009267"/>
<path d="M112.821 21.3625C112.821 21.3625 112.821 21.3419 112.801 21.2801C112.78 21.2184 112.759 21.1566 112.718 21.0536C112.636 20.8683 112.492 20.6417 112.286 20.4152C112.08 20.1886 111.791 19.9827 111.462 19.8385C111.153 19.6943 110.803 19.5708 110.515 19.509C110.206 19.4472 109.856 19.3854 109.505 19.3854C109.155 19.3648 108.785 19.406 108.476 19.4678C108.167 19.5296 107.899 19.6326 107.714 19.7149C107.549 19.7973 107.425 19.8797 107.425 19.8797C107.364 19.9209 107.219 19.7149 107.281 19.6738C107.281 19.6738 107.364 19.5914 107.569 19.4678C107.755 19.3442 108.043 19.2001 108.373 19.1177C108.702 19.0147 109.093 18.9529 109.505 18.9323C109.897 18.9117 110.288 18.9529 110.618 19.0353C110.947 19.1177 111.338 19.2413 111.668 19.4472C112.018 19.6532 112.327 19.9003 112.553 20.1886C112.78 20.477 112.904 20.7653 112.986 20.9918C113.027 21.0948 113.048 21.1772 113.048 21.239C113.068 21.3008 113.068 21.3419 113.068 21.3419C113.068 21.3831 112.842 21.4243 112.821 21.3625Z" fill="#009267"/>
<path d="M107.569 21.692C107.569 21.692 107.899 21.6715 108.331 21.692C108.764 21.7126 109.32 21.7538 109.753 21.8774C110.164 22.001 110.7 22.2687 111.009 22.66C111.071 22.763 111.153 22.8454 111.194 22.9483C111.235 23.0513 111.277 23.1337 111.297 23.1955C111.318 23.319 111.338 23.4014 111.338 23.4014C111.338 23.4426 111.112 23.5044 111.091 23.4838C111.091 23.4838 111.071 23.4014 111.009 23.2779C110.988 23.2161 110.947 23.1749 110.906 23.1131C110.865 23.0513 110.803 22.9895 110.741 22.9071C110.453 22.6394 110 22.4541 109.608 22.3511C109.238 22.2275 108.723 22.1245 108.311 22.0628C107.899 22.001 107.569 21.9392 107.569 21.9392C107.508 21.9186 107.528 21.7126 107.569 21.692Z" fill="#009267"/>
<path d="M106.869 25.6669C106.869 25.6669 106.931 25.6463 107.013 25.6051C107.116 25.5639 107.24 25.5227 107.405 25.5021C107.714 25.4197 108.146 25.3991 108.476 25.5021C108.64 25.5639 108.826 25.6257 108.991 25.7698C109.155 25.8934 109.279 26.0582 109.361 26.2023C109.402 26.2847 109.444 26.3465 109.464 26.4289C109.485 26.4906 109.505 26.573 109.526 26.6142C109.547 26.7172 109.547 26.7584 109.547 26.7584C109.547 26.7996 109.32 26.8614 109.299 26.8408C109.299 26.8408 109.279 26.779 109.238 26.6966C109.217 26.6554 109.196 26.6142 109.155 26.5524C109.135 26.5112 109.093 26.4495 109.052 26.4083C108.888 26.2023 108.599 26.0582 108.352 25.9758C108.105 25.914 107.755 25.8522 107.466 25.8728C107.178 25.8728 106.952 25.914 106.952 25.914C106.91 25.8934 106.849 25.6875 106.869 25.6669Z" fill="#009267"/>
<path d="M106.313 29.6623C106.313 29.6623 106.334 29.6417 106.396 29.6005C106.457 29.5593 106.519 29.5181 106.622 29.4769C106.807 29.3945 107.075 29.3533 107.261 29.3533C107.466 29.3739 107.693 29.4563 107.878 29.5799C107.981 29.6623 108.043 29.724 108.084 29.8476C108.084 29.8682 108.105 29.9094 108.105 29.93C108.105 29.9506 108.105 29.9506 108.105 29.9506C108.105 29.9712 108.105 29.9712 108.105 29.9712C108.105 29.9918 107.858 29.9918 107.837 29.9712C107.837 29.9712 107.837 29.9712 107.837 29.9506V29.93C107.837 29.93 107.817 29.93 107.817 29.9506C107.817 29.9712 107.796 29.9506 107.775 29.9506C107.755 29.9506 107.734 29.93 107.693 29.93C107.569 29.8888 107.364 29.8682 107.219 29.8682C107.075 29.8476 106.869 29.827 106.725 29.8476C106.643 29.8476 106.581 29.8682 106.54 29.8682C106.499 29.8888 106.457 29.8888 106.457 29.8888C106.437 29.8682 106.293 29.6829 106.313 29.6623Z" fill="#009267"/>
<path d="M105.325 31.9689C105.325 31.9689 105.366 31.9277 105.448 31.8865C105.531 31.8453 105.634 31.8041 105.716 31.8041C105.798 31.8041 105.901 31.8659 106.004 31.9277C106.025 31.9483 106.045 31.9689 106.066 31.9895C106.066 32.0101 106.087 32.0101 106.087 32.0307C106.087 32.0513 106.107 32.0719 106.107 32.0719C106.107 32.0719 105.963 32.2778 105.942 32.2778C105.942 32.2778 105.922 32.2778 105.901 32.2778C105.881 32.2778 105.881 32.2778 105.86 32.2778L105.839 32.2984C105.819 32.319 105.737 32.3396 105.695 32.3396C105.613 32.319 105.428 32.2572 105.428 32.2572C105.386 32.1954 105.325 31.9895 105.325 31.9689Z" fill="#009267"/>
<path d="M124.849 34.3991C124.849 34.3991 124.869 34.2961 124.91 34.1108C124.931 34.0284 124.931 33.9048 124.952 33.8018C124.952 33.6783 124.972 33.5341 124.972 33.39C124.972 32.8133 124.869 32.0925 124.704 31.557C124.581 31.0215 124.313 30.3419 123.984 29.8888C123.901 29.7653 123.819 29.6829 123.736 29.5799C123.654 29.4975 123.572 29.4357 123.51 29.374C123.366 29.271 123.263 29.2092 123.263 29.2092C123.222 29.168 123.345 28.962 123.407 28.9826C123.407 28.9826 123.51 29.0238 123.675 29.1268C123.757 29.1886 123.86 29.271 123.963 29.3533C124.066 29.4563 124.169 29.5387 124.272 29.6623C124.684 30.136 125.034 30.8568 125.199 31.454C125.363 32.0513 125.425 32.8133 125.343 33.4517C125.322 33.6165 125.302 33.7607 125.281 33.8842C125.24 34.0078 125.219 34.1314 125.199 34.2137C125.137 34.3991 125.096 34.5021 125.096 34.5021C125.055 34.5433 124.849 34.4609 124.849 34.3991Z" fill="#009267"/>
<path d="M122.233 34.5433C122.233 34.5433 122.171 34.2755 122.068 33.9254C122.048 33.843 122.027 33.7401 122.007 33.6577C121.986 33.5547 121.945 33.4723 121.904 33.3693C121.842 33.184 121.78 32.978 121.739 32.8133C121.677 32.6485 121.615 32.4632 121.574 32.2778C121.553 32.1748 121.512 32.0925 121.492 31.9895C121.471 31.8865 121.43 31.8041 121.389 31.7218C121.265 31.3716 121.162 31.1039 121.162 31.1039C121.142 31.0627 121.368 30.9597 121.389 31.0009C121.389 31.0009 121.533 31.2481 121.718 31.557C121.759 31.6394 121.821 31.7218 121.862 31.8041C121.904 31.9071 121.945 31.9895 121.986 32.0925C122.068 32.2984 122.151 32.4838 122.212 32.6691C122.254 32.8545 122.295 33.0604 122.336 33.2664C122.357 33.3693 122.377 33.4723 122.398 33.5753C122.398 33.6783 122.418 33.7812 122.418 33.8636C122.439 34.2343 122.46 34.5227 122.46 34.5227C122.46 34.5433 122.254 34.5844 122.233 34.5433Z" fill="#009267"/>
<path d="M124.148 50.772C124.148 50.772 124.231 50.7102 124.375 50.6072C124.437 50.5455 124.519 50.4631 124.601 50.3807C124.684 50.2983 124.746 50.1748 124.828 50.0718C125.137 49.5981 125.322 48.9185 125.363 48.383C125.425 47.8475 125.384 47.1267 125.219 46.5912C125.178 46.4677 125.137 46.3235 125.096 46.2205C125.055 46.1176 125.013 46.0146 124.972 45.9322C124.89 45.7675 124.828 45.6645 124.828 45.6645C124.807 45.6027 125.013 45.4791 125.055 45.5203C125.055 45.5203 125.116 45.6027 125.24 45.7674C125.281 45.8498 125.343 45.9528 125.405 46.0764C125.466 46.1999 125.528 46.3235 125.59 46.4677C125.817 47.0443 125.94 47.8269 125.878 48.4242C125.837 49.0214 125.549 49.804 125.158 50.2983C125.055 50.4219 124.952 50.5249 124.849 50.6278C124.746 50.7102 124.663 50.7926 124.581 50.8544C124.416 50.9573 124.313 51.0191 124.313 51.0191C124.21 50.9985 124.107 50.8132 124.148 50.772Z" fill="#009267"/>
<path d="M122.336 49.2274C122.336 49.2274 122.357 49.1656 122.377 49.0832C122.398 49.042 122.418 48.9803 122.439 48.9185C122.46 48.8567 122.46 48.7743 122.48 48.7125C122.563 48.4036 122.563 48.0123 122.583 47.7034C122.583 47.5592 122.583 47.3739 122.583 47.2091C122.563 47.0238 122.563 46.859 122.542 46.7148C122.521 46.6324 122.521 46.5707 122.501 46.5089C122.48 46.4471 122.46 46.3853 122.46 46.3235C122.439 46.2205 122.418 46.1588 122.418 46.1588C122.418 46.1176 122.645 46.0352 122.666 46.0558C122.666 46.0558 122.686 46.1176 122.748 46.2C122.768 46.2411 122.81 46.3029 122.83 46.3647C122.851 46.4265 122.892 46.5089 122.913 46.5913C123.036 46.9414 123.098 47.3533 123.098 47.7034C123.077 48.0535 123.016 48.486 122.871 48.8155C122.83 48.8979 122.81 48.9803 122.769 49.0421C122.727 49.1038 122.707 49.1656 122.666 49.2068C122.604 49.3098 122.583 49.351 122.583 49.351C122.521 49.3716 122.336 49.2686 122.336 49.2274Z" fill="#009267"/>
<path d="M75.874 57.8978C75.874 57.8978 75.8122 57.836 75.7092 57.733C75.6062 57.6301 75.4621 57.4653 75.3179 57.28C75.009 56.9093 74.7 56.3738 74.5765 55.9001C74.4323 55.4264 74.4117 54.788 74.5559 54.3143C74.6177 54.0672 74.7 53.8612 74.7618 53.7376C74.8236 53.6141 74.8648 53.5317 74.8648 53.5317C74.8854 53.4905 75.1119 53.5729 75.1119 53.6347C75.1119 53.6347 75.0914 53.7171 75.0502 53.8612C75.009 54.0054 74.9678 54.1907 74.9472 54.4173C74.8854 54.8498 74.9678 55.4058 75.0913 55.7971C75.2149 56.209 75.4415 56.7239 75.668 57.1152C75.7916 57.3211 75.8946 57.4859 75.9769 57.6095C76.0593 57.733 76.1005 57.7948 76.1005 57.7948C76.0799 57.7948 75.9151 57.939 75.874 57.8978Z" fill="#009267"/>
<path d="M79.2721 56.9711C79.2721 56.9711 79.2103 56.9093 79.0867 56.8063C78.9838 56.7033 78.819 56.5591 78.6543 56.3944C78.3247 56.0443 77.954 55.55 77.7687 55.0969C77.5627 54.6644 77.4597 54.026 77.5009 53.5317C77.5215 53.4081 77.5215 53.2846 77.5627 53.1816C77.5833 53.0786 77.6245 52.9756 77.6451 52.9139C77.7069 52.7697 77.7275 52.6873 77.7275 52.6873C77.7481 52.6461 77.9746 52.7285 77.9746 52.7697C77.9746 52.7697 77.954 52.8521 77.9128 52.9962C77.8922 53.1404 77.8716 53.3257 77.8716 53.5317C77.8716 53.9642 78.0364 54.4997 78.2218 54.891C78.3865 55.2823 78.6748 55.7766 78.9426 56.1473C79.0867 56.3326 79.2103 56.4974 79.2927 56.6003C79.3957 56.7033 79.4369 56.7651 79.4369 56.7651C79.4575 56.8475 79.3133 56.9916 79.2721 56.9711Z" fill="#009267"/>
<path d="M81.9083 55.4059C81.9083 55.4059 81.8671 55.3853 81.8053 55.3441C81.7435 55.3029 81.6405 55.2617 81.5375 55.1999C81.3316 55.0764 81.0845 54.8704 80.9197 54.6644C80.7755 54.4585 80.6108 54.1702 80.5902 53.8819C80.5902 53.8201 80.5696 53.7377 80.5696 53.6965C80.5696 53.6553 80.5696 53.5935 80.5696 53.5729C80.5696 53.4906 80.5696 53.4494 80.5696 53.4494C80.5696 53.4288 80.8167 53.4082 80.8373 53.4288C80.8373 53.4288 80.8579 53.47 80.8579 53.5523C80.8579 53.5935 80.8785 53.6347 80.8991 53.6759C80.9197 53.7171 80.9403 53.7583 80.9609 53.7995C80.9815 53.8407 81.0021 53.8818 81.0227 53.9436C81.0433 53.9848 81.0845 54.0466 81.1257 54.0878C81.1874 54.1908 81.2698 54.2731 81.3316 54.3555C81.4552 54.5203 81.6199 54.7263 81.7847 54.891C81.8671 54.9734 81.9288 55.0352 81.9906 55.097C82.0524 55.1381 82.073 55.1793 82.073 55.1793C82.0524 55.2411 81.9288 55.4059 81.9083 55.4059Z" fill="#009267"/>
<path d="M120.627 59.8955C120.627 59.8955 120.874 59.6072 121.224 59.2571C121.574 58.907 121.986 58.4745 122.274 58.1244C122.583 57.7743 122.892 57.3006 123.016 56.8681C123.036 56.7651 123.057 56.6621 123.057 56.5592C123.057 56.4768 123.077 56.3944 123.057 56.312C123.036 56.1678 123.016 56.0649 123.016 56.0649C123.016 56.0237 123.242 55.9619 123.263 56.0031C123.263 56.0031 123.283 56.0855 123.325 56.2296C123.345 56.312 123.345 56.415 123.366 56.5386C123.386 56.6621 123.366 56.7857 123.345 56.9093C123.283 57.4447 122.933 58.042 122.624 58.4127C122.295 58.804 121.821 59.1953 121.45 59.5042C121.059 59.8131 120.791 60.0397 120.791 60.0397C120.771 60.1015 120.606 59.9573 120.627 59.8955Z" fill="#009267"/>
<path d="M119.288 57.9802C119.288 57.9802 119.37 57.7743 119.515 57.5271C119.659 57.28 119.803 56.9711 119.947 56.7445C120.071 56.518 120.256 56.2296 120.338 56.0031C120.359 55.9413 120.4 55.9001 120.4 55.8383C120.421 55.7766 120.421 55.7354 120.441 55.6942C120.462 55.6118 120.482 55.55 120.482 55.55C120.503 55.5294 120.73 55.55 120.73 55.5912C120.73 55.5912 120.73 55.653 120.73 55.7354C120.73 55.7766 120.73 55.8383 120.73 55.9001C120.73 55.9619 120.709 56.0237 120.688 56.1061C120.647 56.415 120.503 56.7651 120.359 57.0122C120.215 57.2594 119.988 57.5477 119.823 57.7537C119.638 57.9596 119.494 58.1244 119.494 58.1244C119.473 58.1244 119.288 58.0214 119.288 57.9802Z" fill="#009267"/>
<path d="M117.661 56.2914C117.661 56.2914 117.682 56.2297 117.723 56.1679C117.743 56.1061 117.785 56.0031 117.826 55.9413C117.908 55.8178 118.135 55.6324 118.135 55.6324C118.135 55.6324 118.361 55.7354 118.361 55.756C118.361 55.756 118.361 55.8178 118.341 55.9207C118.32 56.0237 118.299 56.1267 118.238 56.2091C118.196 56.2914 118.093 56.3738 117.99 56.4356C117.949 56.4562 117.908 56.4768 117.867 56.4974C117.826 56.518 117.805 56.518 117.805 56.518C117.784 56.4974 117.661 56.312 117.661 56.2914Z" fill="#009267"/>
<path d="M98.1576 66.4241C98.1782 66.4241 98.137 66.2182 98.3224 65.971C98.3636 65.9092 98.4459 65.8475 98.5077 65.8063C98.5901 65.7651 98.6725 65.7239 98.7549 65.7033C98.9196 65.6621 99.0844 65.6827 99.2286 65.7239C99.4963 65.8063 99.764 66.0122 99.9082 66.1976C99.9494 66.2593 99.9906 66.3005 100.011 66.3417C100.032 66.3829 100.073 66.4447 100.094 66.4653C100.114 66.5271 100.135 66.5683 100.135 66.5683C100.135 66.5889 99.9288 66.7124 99.9082 66.6918C99.9082 66.6918 99.8876 66.6506 99.8258 66.6095C99.8052 66.5889 99.7846 66.5683 99.7434 66.5477C99.7022 66.5271 99.6816 66.4859 99.6405 66.4653C99.4757 66.3417 99.2286 66.2387 99.0638 66.1976C98.9814 66.177 98.8784 66.1564 98.7961 66.1564C98.7549 66.1564 98.7137 66.1564 98.6725 66.177C98.6519 66.1976 98.6107 66.1976 98.5695 66.2388C98.446 66.3417 98.3842 66.5065 98.3842 66.5065C98.3842 66.4859 98.1782 66.4447 98.1576 66.4241Z" fill="#009267"/>
<path d="M103.842 66.7124C103.842 66.7124 103.883 66.5477 103.986 66.3417C104.089 66.1358 104.274 65.8886 104.46 65.7445C104.645 65.6003 104.933 65.4767 105.222 65.4767C105.345 65.4767 105.469 65.5179 105.551 65.5591C105.613 65.6003 105.634 65.6209 105.654 65.6209C105.675 65.6415 105.572 65.8474 105.551 65.8474C105.551 65.8474 105.51 65.8268 105.448 65.8268C105.407 65.8268 105.345 65.8268 105.263 65.8474C105.098 65.8886 104.913 66.0122 104.789 66.1358C104.645 66.2387 104.46 66.4035 104.336 66.5477C104.192 66.6918 104.11 66.8154 104.11 66.8154C104.048 66.8154 103.842 66.733 103.842 66.7124Z" fill="#009267"/>
</svg>
